# xmcd CD database file
# Copyright (C) 1997 Ti Kan
# 
# Track frame offsets:
#     150
#     15025
#     30378
#     39413
#     53848
#     62725
#     86118
#     97213
#     108093
#     118413
#     127978
#     137433
#     146960
#     158630
# 
# Disc length: 2278 seconds
# 
# Revision: 1
# Processed by: cddbd v1.4b41PL1 Copyright (c) Steve Scherf et al.
# Submitted via: DiscPlay 4.0.3
# 
DISCID=b508e40e
DTITLE=The Johnson Mountain Boys - Blue Diamond
DYEAR=1900
DGENRE=
TTITLE0=Duncan and Brady
TTITLE1=My Better Years
TTITLE2=It Don't Bring You Back To Me
TTITLE3=Christine LeRoy
TTITLE4=See God's Ark A Movin'
TTITLE5=Blue Diamond Mines
TTITLE6=Teardrops Fell Like Raindrops
TTITLE7=Our Last Goodbye
TTITLE8=The Future Remains
TTITLE9=You Done Me Wrong
TTITLE10=Roll On Blues
TTITLE11=There Goes My Love
TTITLE12=Only A Hobo
TTITLE13=Harbor Of Love
EXTD=
EXTT0=
EXTT1=
EXTT2=
EXTT3=
EXTT4=
EXTT5=
EXTT6=
EXTT7=
EXTT8=
EXTT9=
EXTT10=
EXTT11=
EXTT12=
EXTT13=
PLAYORDER=
